<?xml version='1.0' encoding='UTF-8' standalone='no'?>
<!-- Created with Fritzing (http://www.fritzing.org/) -->
<svg xmlns:svg='http://www.w3.org/2000/svg' xmlns='http://www.w3.org/2000/svg' version='1.2' baseProfile='tiny' x='0in' y='0in' width='2.6912in' height='1.41386in' viewBox='0 0 193.766 101.798' >
<g partID='854490340'><g transform='translate(8.36007,22.5977)' ><g id="schematic" xmlns="http://www.w3.org/2000/svg">
<rect stroke="#000000" stroke-width="0.9" stroke-linecap="round" fill="#FFFFFF" xmlns="http://www.w3.org/2000/svg" class="interior rect" width="63.9" height="78.3" y="0.45" x="14.85"/>
<g stroke="none" stroke-width="0" stroke-linecap="round" xmlns="http://www.w3.org/2000/svg" font-family="'Droid Sans'">
<g font-size="3.49999" id="pins" fill="none" xmlns="http://www.w3.org/2000/svg">
<g text-anchor="start" id="pins-left" xmlns="http://www.w3.org/2000/svg">
<line stroke="#787878" y2="14.4" stroke-width="0.699999" id="connector0pin" y1="14.4" xmlns="http://www.w3.org/2000/svg" x1="0.349999" x2="14.75"/>
<text fill="#8c8c8c" xmlns="http://www.w3.org/2000/svg" y="15.0999" x="16.15">RST</text>
<g id="connector0terminal" xmlns="http://www.w3.org/2000/svg" width="0.699999" height="0.699999" y="14.0499" x="-0.349999"/>
<line stroke="#787878" y2="21.6" stroke-width="0.699999" id="connector1pin" y1="21.6" xmlns="http://www.w3.org/2000/svg" x1="0.349999" x2="14.75"/>
<text fill="#8c8c8c" xmlns="http://www.w3.org/2000/svg" y="22.2999" x="16.15">A0</text>
<g id="connector1terminal" xmlns="http://www.w3.org/2000/svg" width="0.699999" height="0.699999" y="21.2499" x="-0.349999"/>
<line stroke="#787878" y2="28.8" stroke-width="0.699999" id="connector2pin" y1="28.8" xmlns="http://www.w3.org/2000/svg" x1="0.349999" x2="14.75"/>
<text fill="#8c8c8c" xmlns="http://www.w3.org/2000/svg" y="29.4999" x="16.15">D0</text>
<g id="connector2terminal" xmlns="http://www.w3.org/2000/svg" width="0.699999" height="0.699999" y="28.4499" x="-0.349999"/>
<line stroke="#787878" y2="36" stroke-width="0.699999" id="connector3pin" y1="36" xmlns="http://www.w3.org/2000/svg" x1="0.349999" x2="14.75"/>
<text fill="#8c8c8c" xmlns="http://www.w3.org/2000/svg" y="36.6999" x="16.15">D5</text>
<g id="connector3terminal" xmlns="http://www.w3.org/2000/svg" width="0.699999" height="0.699999" y="35.6499" x="-0.349999"/>
<line stroke="#787878" y2="43.2" stroke-width="0.699999" id="connector4pin" y1="43.2" xmlns="http://www.w3.org/2000/svg" x1="0.349999" x2="14.75"/>
<text fill="#8c8c8c" xmlns="http://www.w3.org/2000/svg" y="43.8999" x="16.15">D6</text>
<g id="connector4terminal" xmlns="http://www.w3.org/2000/svg" width="0.699999" height="0.699999" y="42.8499" x="-0.349999"/>
<line stroke="#787878" y2="50.4" stroke-width="0.699999" id="connector5pin" y1="50.4" xmlns="http://www.w3.org/2000/svg" x1="0.349999" x2="14.75"/>
<text fill="#8c8c8c" xmlns="http://www.w3.org/2000/svg" y="51.0999" x="16.15">D7</text>
<g id="connector5terminal" xmlns="http://www.w3.org/2000/svg" width="0.699999" height="0.699999" y="50.0499" x="-0.349999"/>
<line stroke="#787878" y2="57.6" stroke-width="0.699999" id="connector6pin" y1="57.6" xmlns="http://www.w3.org/2000/svg" x1="0.349999" x2="14.75"/>
<text fill="#8c8c8c" xmlns="http://www.w3.org/2000/svg" y="58.2999" x="16.15">D8</text>
<g id="connector6terminal" xmlns="http://www.w3.org/2000/svg" width="0.699999" height="0.699999" y="57.2499" x="-0.349999"/>
<line stroke="#787878" y2="64.8" stroke-width="0.699999" id="connector7pin" y1="64.8" xmlns="http://www.w3.org/2000/svg" x1="0.349999" x2="14.75"/>
<text fill="#8c8c8c" xmlns="http://www.w3.org/2000/svg" y="65.4999" x="16.15">3V3</text>
<g id="connector7terminal" xmlns="http://www.w3.org/2000/svg" width="0.699999" height="0.699999" y="64.4499" x="-0.349999"/>
</g>
<g text-anchor="end" id="right" xmlns="http://www.w3.org/2000/svg">
<line stroke="#787878" y2="64.8" stroke-width="0.699999" id="connector8pin" y1="64.8" xmlns="http://www.w3.org/2000/svg" x1="78.8499" x2="93.2499"/>
<text fill="#8c8c8c" xmlns="http://www.w3.org/2000/svg" y="65.4999" x="77.4499">5V</text>
<g id="connector8terminal" xmlns="http://www.w3.org/2000/svg" width="0.699999" height="0.699999" y="64.4499" x="93.2499"/>
<line stroke="#787878" y2="57.6" stroke-width="0.699999" id="connector9pin" y1="57.6" xmlns="http://www.w3.org/2000/svg" x1="78.8499" x2="93.2499"/>
<text fill="#8c8c8c" xmlns="http://www.w3.org/2000/svg" y="58.2999" x="77.4499">G</text>
<g id="connector9terminal" xmlns="http://www.w3.org/2000/svg" width="0.699999" height="0.699999" y="57.2499" x="93.2499"/>
<line stroke="#787878" y2="50.4" stroke-width="0.699999" id="connector10pin" y1="50.4" xmlns="http://www.w3.org/2000/svg" x1="78.8499" x2="93.2499"/>
<text fill="#8c8c8c" xmlns="http://www.w3.org/2000/svg" y="51.0999" x="77.4499">D4</text>
<g id="connector10terminal" xmlns="http://www.w3.org/2000/svg" width="0.699999" height="0.699999" y="50.0499" x="93.2499"/>
<line stroke="#787878" y2="43.2" stroke-width="0.699999" id="connector11pin" y1="43.2" xmlns="http://www.w3.org/2000/svg" x1="78.8499" x2="93.2499"/>
<text fill="#8c8c8c" xmlns="http://www.w3.org/2000/svg" y="43.8999" x="77.4499">D3</text>
<g id="connector11terminal" xmlns="http://www.w3.org/2000/svg" width="0.699999" height="0.699999" y="42.8499" x="93.2499"/>
<line stroke="#787878" y2="36" stroke-width="0.699999" id="connector12pin" y1="36" xmlns="http://www.w3.org/2000/svg" x1="78.8499" x2="93.2499"/>
<text fill="#8c8c8c" xmlns="http://www.w3.org/2000/svg" y="36.6999" x="77.4499">D2</text>
<g id="connector12terminal" xmlns="http://www.w3.org/2000/svg" width="0.699999" height="0.699999" y="35.6499" x="93.2499"/>
<line stroke="#787878" y2="28.8" stroke-width="0.699999" id="connector13pin" y1="28.8" xmlns="http://www.w3.org/2000/svg" x1="78.8499" x2="93.2499"/>
<text fill="#8c8c8c" xmlns="http://www.w3.org/2000/svg" y="29.4999" x="77.4499">D1</text>
<g id="connector13terminal" xmlns="http://www.w3.org/2000/svg" width="0.699999" height="0.699999" y="28.4499" x="93.2499"/>
<line stroke="#787878" y2="21.6" stroke-width="0.699999" id="connector14pin" y1="21.6" xmlns="http://www.w3.org/2000/svg" x1="78.8499" x2="93.2499"/>
<text fill="#8c8c8c" xmlns="http://www.w3.org/2000/svg" y="22.2999" x="77.4499">RX</text>
<g id="connector14terminal" xmlns="http://www.w3.org/2000/svg" width="0.699999" height="0.699999" y="21.2499" x="93.2499"/>
<line stroke="#787878" y2="14.4" stroke-width="0.699999" id="connector15pin" y1="14.4" xmlns="http://www.w3.org/2000/svg" x1="78.8499" x2="93.2499"/>
<text fill="#8c8c8c" xmlns="http://www.w3.org/2000/svg" y="15.0999" x="77.4499">TX</text>
<g id="connector15terminal" xmlns="http://www.w3.org/2000/svg" width="0.699999" height="0.699999" y="14.0499" x="93.2499"/>
</g>
</g>
<text font-size="4.25001" text-anchor="middle" id="label" fill="#000000" xmlns="http://www.w3.org/2000/svg" y="39.685" x="46.8283">WeMos D1 mini</text>
</g>
</g>
</g></g><g partID='854490430'><g transform='translate(185.12,29.3791)' ><g transform='matrix(0,1,-1,0,0,0)'  ><g id="schematic">
<line stroke="#000000" stroke-width="0.7" stroke-linecap="round" y2="11.159" fill="none" y1="11.159" x1="19.8" x2="21.6"/>
<line stroke="#000000" stroke-width="0.7" stroke-linecap="round" y2="7.559" fill="none" y1="11.159" x1="7.2" x2="19.8"/>
<circle stroke="#000000" stroke-width="0.7" cx="7.2" fill="none" r="0.36" cy="11.159"/>
<circle stroke="#000000" stroke-width="0.7" cx="21.6" fill="none" r="0.36" cy="11.159"/>
<g transform="matrix(1, 0, 0, 1, 2.7612, 2.718)">
<text font-size="2" fill="#787878" font-family="'DroidSans'">1</text>
</g>
<g transform="matrix(1, 0, 0, 1, 24.604, 2.718)">
<text font-size="2" fill="#787878" font-family="'DroidSans'">2</text>
</g>
<g transform="matrix(1, 0, 0, 1, 2.7612, 16.843)">
<text font-size="2" fill="#787878" font-family="'DroidSans'">1</text>
</g>
<g transform="matrix(1, 0, 0, 1, 24.604, 16.843)">
<text font-size="2" fill="#787878" font-family="'DroidSans'">2</text>
</g>
<line stroke="#000000" stroke-width="0.7" stroke-linecap="round" y2="18.359" fill="none" y1="3.96" x1="21.6" x2="21.6"/>
<line stroke="#000000" stroke-width="0.7" stroke-linecap="round" y2="18.359" fill="none" y1="3.96" x1="7.2" x2="7.2"/>
<line stroke="#555555" stroke-width="0.7" stroke-linecap="round" y2="18.359" id="connector3pin" fill="none" y1="18.359" x1="0.322" x2="7.2"/>
<line stroke="#555555" stroke-width="0.7" stroke-linecap="round" y2="3.96" id="connector2pin" fill="none" y1="3.96" x1="0.322" x2="7.2"/>
<g id="connector2terminal" fill="none" points="0.822,4.281,0.837,3.64,0,3.64,0,4.281"/>
<g id="connector3terminal" fill="none" points="0.822,18.694,0.837,18.053,0,18.053,0,18.694"/>
<line stroke="#555555" stroke-width="0.7" stroke-linecap="round" y2="18.359" id="connector1pin" fill="none" y1="18.359" x1="28.451" x2="21.6"/>
<g id="connector1terminal" fill="none" width="0.994" height="0.672" y="18.006" x="27.806"/>
<g id="connector0terminal" fill="none" width="1.088" height="0.719" y="3.6" x="27.712"/>
<line stroke="#555555" stroke-width="0.7" stroke-linecap="round" y2="3.96" id="connector0pin" fill="none" y1="3.96" x1="28.451" x2="21.6"/>
</g>
</g></g></g><g partID='854491950'><g transform='translate(133.856,43.8473)' ><g transform='matrix(0,1,-1,0,0,0)'  ><g id="schematic" xmlns="http://www.w3.org/2000/svg">
<line stroke="#000000" y2="0.216" stroke-width="0.432002" stroke-linecap="round" y1="3.096" xmlns="http://www.w3.org/2000/svg" class="other" x1="7.55002" x2="8.63003"/>
<line stroke="#000000" y2="5.976" stroke-width="0.432002" stroke-linecap="round" y1="0.216" xmlns="http://www.w3.org/2000/svg" class="other" x1="8.63003" x2="10.43"/>
<line stroke="#000000" y2="0.216" stroke-width="0.432002" stroke-linecap="round" y1="5.976" xmlns="http://www.w3.org/2000/svg" class="other" x1="10.43" x2="12.23"/>
<line stroke="#000000" y2="5.976" stroke-width="0.432002" stroke-linecap="round" y1="0.216" xmlns="http://www.w3.org/2000/svg" class="other" x1="12.23" x2="14.03"/>
<line stroke="#000000" y2="0.216" stroke-width="0.432002" stroke-linecap="round" y1="5.976" xmlns="http://www.w3.org/2000/svg" class="other" x1="14.03" x2="15.8301"/>
<line stroke="#000000" y2="5.976" stroke-width="0.432002" stroke-linecap="round" y1="0.216" xmlns="http://www.w3.org/2000/svg" class="other" x1="15.8301" x2="17.6301"/>
<line stroke="#000000" y2="0.216" stroke-width="0.432002" stroke-linecap="round" y1="5.976" xmlns="http://www.w3.org/2000/svg" class="other" x1="17.6301" x2="19.4301"/>
<line stroke="#000000" y2="5.976" stroke-width="0.432002" stroke-linecap="round" y1="0.216" xmlns="http://www.w3.org/2000/svg" class="other" x1="19.4301" x2="21.2301"/>
<line stroke="#000000" y2="3.096" stroke-width="0.432002" stroke-linecap="round" y1="5.976" xmlns="http://www.w3.org/2000/svg" class="other" x1="21.2301" x2="21.9501"/>
<line stroke="#787878" y2="3.096" stroke-width="0.700001" stroke-linecap="round" id="connector1pin" connectorname="2" y1="3.096" xmlns="http://www.w3.org/2000/svg" class="pin" x1="29.1502" x2="21.9501"/>
<g stroke="none" stroke-width="0" id="connector1terminal" fill="none" xmlns="http://www.w3.org/2000/svg" class="terminal" width="0.000283466" height="0.000283465" y="3.096" x="29.1502"/>
<text stroke="none" stroke-width="0" font-size="2.50001" text-anchor="middle" fill="#8c8c8c" xmlns="http://www.w3.org/2000/svg" class="text" font-family="'Droid Sans'" y="2.046" x="25.5501">2</text>
<line stroke="#787878" y2="3.096" stroke-width="0.700001" stroke-linecap="round" id="connector0pin" connectorname="1" y1="3.096" xmlns="http://www.w3.org/2000/svg" class="pin" x1="0.350001" x2="7.55002"/>
<g stroke="none" stroke-width="0" id="connector0terminal" fill="none" xmlns="http://www.w3.org/2000/svg" class="terminal" width="0.000283466" height="0.000283465" y="3.096" x="0.350001"/>
<text stroke="none" stroke-width="0" font-size="2.50001" text-anchor="middle" fill="#8c8c8c" xmlns="http://www.w3.org/2000/svg" class="text" font-family="'Droid Sans'" y="2.046" x="3.95001">1</text>
</g>
</g></g></g><g partID='854491980'><g transform='translate(120.859,15.1816)' ><g id="schematic">
<g>
<path d="M13.5,14.966L9.9,14.966c-0.193,0,-0.35,-0.156,-0.35,-0.35s0.156,-0.35,0.35,-0.35L13.5,14.266c0.193,0,0.35,0.156,0.35,0.35S13.694,14.966,13.5,14.966z"/>
</g>
<g>
<path d="M9.9,14.966L6.3,14.966c-0.193,0,-0.35,-0.156,-0.35,-0.35s0.157,-0.35,0.35,-0.35l3.6,0c0.193,0,0.35,0.156,0.35,0.35S10.093,14.966,9.9,14.966z"/>
</g>
<g>
<polygon fill="#FFFFFF" points="9.9,14.616,6.3,7.416,9.9,7.416,13.5,7.416"/>
<path d="M9.9,15.398L5.734,7.066l8.333,0L9.9,15.398zM6.866,7.766L9.9,13.834l3.034,-6.068L6.866,7.766z"/>
</g>
<g>
<path d="M9.9,14.841c-0.124,0,-0.225,-0.101,-0.225,-0.225l0,-7.2c0,-0.124,0.101,-0.225,0.225,-0.225s0.225,0.101,0.225,0.225l0,7.2C10.124,14.74,10.024,14.841,9.9,14.841z"/>
</g>
<g>
<path d="M1.8,12.141c-0.058,0,-0.115,-0.021,-0.159,-0.065c-0.088,-0.088,-0.088,-0.23,0,-0.318l2.34,-2.341c0.088,-0.088,0.23,-0.088,0.318,0s0.088,0.23,0,0.318l-2.34,2.341C1.915,12.12,1.858,12.141,1.8,12.141z"/>
</g>
<g>
<path d="M2.16,15.381c-0.058,0,-0.115,-0.021,-0.159,-0.065c-0.088,-0.088,-0.088,-0.23,0,-0.318l2.34,-2.34c0.088,-0.088,0.23,-0.088,0.318,0s0.088,0.23,0,0.318l-2.34,2.34C2.276,15.359,2.218,15.381,2.16,15.381z"/>
</g>
<g id="connector0pin">
<path fill="#787878" d="M9.9,22.166c-0.193,0,-0.35,-0.156,-0.35,-0.35l0,-7.2c0,-0.193,0.156,-0.35,0.35,-0.35s0.35,0.156,0.35,0.35l0,7.2C10.249,22.01,10.093,22.166,9.9,22.166z"/>
</g>
<g id="connector0terminal">
<rect fill="none" width="0.001" height="0.001" y="21.816" x="9.9"/>
</g>
<g transform="matrix(1, 0, 0, 1, 3.429, 6.4262)">
<g>
<g transform="rotate(270)">
<g>
<g enable-background="new    ">
<path fill="#787878" d="M-11.647,5.54l-0.891,0L-12.538,5.388l0.342,-0.372c0.049,-0.053,0.093,-0.101,0.131,-0.145s0.071,-0.086,0.099,-0.128c0.026,-0.042,0.047,-0.084,0.062,-0.125c0.015,-0.043,0.021,-0.088,0.021,-0.138c0,-0.038,-0.005,-0.072,-0.017,-0.102s-0.027,-0.054,-0.047,-0.075c-0.021,-0.02,-0.045,-0.035,-0.073,-0.046s-0.06,-0.016,-0.094,-0.016c-0.062,0,-0.118,0.013,-0.167,0.038c-0.051,0.024,-0.098,0.057,-0.143,0.096l-0.1,-0.116c0.025,-0.023,0.055,-0.046,0.084,-0.065c0.029,-0.021,0.063,-0.039,0.097,-0.054s0.071,-0.026,0.109,-0.036c0.038,-0.008,0.079,-0.013,0.121,-0.013c0.063,0,0.119,0.009,0.169,0.026c0.051,0.018,0.094,0.043,0.129,0.076c0.035,0.032,0.063,0.072,0.082,0.119c0.019,0.048,0.028,0.101,0.028,0.16c0,0.056,-0.009,0.108,-0.026,0.158c-0.017,0.05,-0.041,0.1,-0.07,0.148c-0.031,0.048,-0.066,0.097,-0.109,0.146c-0.041,0.049,-0.087,0.1,-0.136,0.152L-12.32,5.37l0,0.008l0.673,0L-11.647,5.54z"/>
</g>
</g>
</g>
</g>
</g>
<g id="connector1pin">
<path fill="#787878" d="M9.9,7.766c-0.193,0,-0.35,-0.157,-0.35,-0.35l0,-7.2c0,-0.193,0.156,-0.35,0.35,-0.35s0.35,0.157,0.35,0.35l0,7.2C10.249,7.609,10.093,7.766,9.9,7.766z"/>
</g>
<g id="connector1terminal">
<polygon fill="none" points="9.9,0.216,9.901,0.216,9.901,0.216"/>
</g>
<g transform="matrix(1, 0, 0, 1, 3.429, 1.3462)">
<g>
<g transform="rotate(270)">
<g>
<g enable-background="new    ">
<path fill="#787878" d="M-2.616,5.54l-0.172,0L-2.788,4.648c0,-0.028,0,-0.058,0,-0.09s0.001,-0.063,0.002,-0.095c0.001,-0.032,0.002,-0.063,0.003,-0.092c0.001,-0.028,0.002,-0.054,0.002,-0.076c-0.011,0.012,-0.021,0.021,-0.029,0.03s-0.017,0.017,-0.026,0.024s-0.018,0.016,-0.028,0.025c-0.01,0.008,-0.021,0.019,-0.035,0.03l-0.145,0.118l-0.094,-0.12l0.374,-0.292l0.146,0L-2.618,5.54z"/>
</g>
</g>
</g>
</g>
</g>
<g>
<path d="M0.18,13.536l1.08,-2.521l1.44,1.438L0.18,13.536z"/>
</g>
<g>
<path d="M0.54,16.776l1.08,-2.521l1.438,1.438L0.54,16.776z"/>
</g>
</g>
</g></g><g partID='854492770'><line stroke-linecap='round' stroke='#404040' x1='130.871' y1='80.2544' x2='101.96' y2='80.1976' stroke-width='0.699998' /></g><g partID='854492660'><line stroke-linecap='round' stroke='#404040' x1='130.76' y1='72.9976' x2='130.871' y2='80.2544' stroke-width='0.699998' /></g><circle  fill="black" cx="130.76" cy="72.9976" r="1.44" stroke-width="0" stroke="none" /><g partID='854492900'><line stroke-linecap='round' stroke='#404040' x1='130.871' y1='80.2544' x2='130.76' y2='72.9976' stroke-width='0.699998' /></g><circle  fill="black" cx="130.76" cy="72.9976" r="1.44" stroke-width="0" stroke="none" /><g partID='854493000'><line stroke-linecap='round' stroke='#404040' x1='166.899' y1='80.2544' x2='130.871' y2='80.2544' stroke-width='0.699998' /></g><g partID='854492910'><line stroke-linecap='round' stroke='#404040' x1='166.779' y1='57.6821' x2='166.899' y2='80.2544' stroke-width='0.699998' /></g><g partID='854493230'><line stroke-linecap='round' stroke='#404040' x1='109.135' y1='15.345' x2='109.135' y2='58.5187' stroke-width='0.699998' /></g><g partID='854493090'><line stroke-linecap='round' stroke='#404040' x1='130.76' y1='15.3976' x2='109.135' y2='15.345' stroke-width='0.699998' /></g><g partID='854493160'><line stroke-linecap='round' stroke='#404040' x1='109.135' y1='58.5187' x2='101.96' y2='58.5976' stroke-width='0.699998' /></g><g partID='854493510'><line stroke-linecap='round' stroke='#404040' x1='166.899' y1='1.05304' x2='1.05197' y2='1.05304' stroke-width='0.699998' /></g><g partID='854493370'><line stroke-linecap='round' stroke='#404040' x1='1.05197' y1='51.3727' x2='8.36007' y2='51.3976' stroke-width='0.699998' /></g><g partID='854493440'><line stroke-linecap='round' stroke='#404040' x1='1.05197' y1='1.05304' x2='1.05197' y2='51.3727' stroke-width='0.699998' /></g><g partID='854493300'><line stroke-linecap='round' stroke='#404040' x1='166.747' y1='29.7976' x2='166.899' y2='1.05304' stroke-width='0.699998' /></g><g partID='854493580'><line stroke-linecap='round' stroke='#404040' x1='130.76' y1='44.1974' x2='130.76' y2='36.9981' stroke-width='0.699998' /></g><g partID='854490340' id='partLabel'><g transform='translate(23.3833,16.9682)' ><g font-size='5' font-style='normal' font-weight='normal' fill='#000000' font-family="'DroidSans'" id='schematicLabel' fill-opacity='1' stroke='none' ><text x='0' y='3.75'>WeMos D1 Mini2</text></g></g></g><g partID='854490430' id='partLabel'><g transform='translate(186.566,29.6914)' ><g font-size='5' font-style='normal' font-weight='normal' fill='#000000' font-family="'DroidSans'" id='schematicLabel' fill-opacity='1' stroke='none' ><text x='0' y='3.75'>S1</text></g></g></g><g partID='854491950' id='partLabel'><g transform='translate(137.769,49.363)' ><g font-size='5' font-style='normal' font-weight='normal' fill='#000000' font-family="'DroidSans'" id='schematicLabel' fill-opacity='1' stroke='none' ><text x='0' y='3.75'>R1</text><text x='0' y='8.75'>330&#x3a9;</text></g></g></g><g partID='854491980' id='partLabel'><g transform='translate(136.326,17.3804)' ><g font-size='5' font-style='normal' font-weight='normal' fill='#000000' font-family="'DroidSans'" id='schematicLabel' fill-opacity='1' stroke='none' ><text x='0' y='3.75'>LED1</text><text x='0' y='8.75'>Red (633nm)</text></g></g></g></svg>